{
  "accessors": [
    {
      "bufferView": 1,
      "componentType": 5126,
      "count": 64828,
      "max": [
        0.9006345272064209,
        0.8811076283454895,
        1.1462187767028809
      ],
      "min": [
        -0.8997587561607361,
        -1.264531135559082,
        -1.5361213684082031
      ],
      "type": "VEC3"
    },
    {
      "bufferView": 1,
      "byteOffset": 777936,
      "componentType": 5126,
      "count": 64828,
      "max": [
        0.9999997615814209,
        0.9999989867210388,
        0.9999991655349731
      ],
      "min": [
        -0.9999948143959045,
        -0.9999929666519165,
        -0.9999659657478333
      ],
      "type": "VEC3"
    },
    {
      "bufferView": 0,
      "componentType": 5125,
      "count": 368520,
      "type": "SCALAR"
    }
  ],
  "asset": {
    "extras": {
      "author": "heim (https://sketchfab.com/hheim)",
      "license": "CC-BY-4.0 (http://creativecommons.org/licenses/by/4.0/)",
      "source": "https://sketchfab.com/3d-models/mask-e560cdede37b4b3ebb2a9ee22be75abc",
      "title": "Mask"
    },
    "generator": "Sketchfab-13.37.1",
    "version": "2.0"
  },
  "bufferViews": [
    {
      "buffer": 0,
      "byteLength": 1474080,
      "name": "floatBufferViews",
      "target": 34963
    },
    {
      "buffer": 0,
      "byteLength": 1555872,
      "byteOffset": 1474080,
      "byteStride": 12,
      "name": "floatBufferViews",
      "target": 34962
    }
  ],
  "buffers": [
    {
      "byteLength": 3029952,
      "uri": "scene.bin"
    }
  ],
  "materials": [
    {
      "doubleSided": true,
      "name": "material_0",
      "pbrMetallicRoughness": {
        "baseColorFactor": [
          0.4206498028011737,
          0.18242045149351852,
          0.06667850378262773,
          1.0
        ],
        "roughnessFactor": 0.6
      }
    }
  ],
  "meshes": [
    {
      "name": "Object_0",
      "primitives": [
        {
          "attributes": {
            "NORMAL": 1,
            "POSITION": 0
          },
          "indices": 2,
          "material": 0,
          "mode": 4
        }
      ]
    }
  ],
  "nodes": [
    {
      "children": [
        1
      ],
      "matrix": [
        1.0,
        0.0,
        0.0,
        0.0,
        0.0,
        2.220446049250313e-16,
        -1.0,
        0.0,
        0.0,
        1.0,
        2.220446049250313e-16,
        0.0,
        0.0,
        0.0,
        0.0,
        1.0
      ],
      "name": "Sketchfab_model"
    },
    {
      "children": [
        2
      ],
      "name": "LP_zen.OBJ.cleaner.materialmerger.gles"
    },
    {
      "mesh": 0,
      "name": "Object_2"
    }
  ],
  "scene": 0,
  "scenes": [
    {
      "name": "Sketchfab_Scene",
      "nodes": [
        0
      ]
    }
  ]
}
